    <svg
      id="SvgjsSvg1093"
      width="256"
      height="256"
      xmlns="http://www.w3.org/2000/svg"
      version="1.1"
      xmlns:xlink="http://www.w3.org/1999/xlink"
      xmlns:svgjs="http://svgjs.com/svgjs"
      fill="#ffab00"
    >
      <defs id="SvgjsDefs1094"></defs>
      <g id="SvgjsG1095">
        <svg
          xmlns="http://www.w3.org/2000/svg"
          viewBox="0 0 69 69"
          width="256"
          height="256"
        >
          <path
            d="M3.5 65.712h62a.75.75 0 0 0 .75-.75V59.15a.75.75 0 0 0-.75-.75h-1.25V27.464h1.25a.75.75 0 0 0 .75-.75v-5.81a.75.75 0 0 0-.75-.75h-3.937v-5.561a.75.75 0 0 0-.75-.75h-6.31a.75.75 0 0 0-.75.75v5.56H48.13v-9.44a.75.75 0 0 0-.75-.75H21.62a.75.75 0 0 0-.75.75v9.44h-5.624v-5.56a.75.75 0 0 0-.75-.75h-6.31a.75.75 0 0 0-.75.75v5.56H3.5a.75.75 0 0 0-.75.75v5.811c0 .414.336.75.75.75h1.25v30.937H3.5a.75.75 0 0 0-.75.75v5.81c0 .415.336.75.75.75zm51.753-50.369h4.81v4.81h-4.81v-4.81zm-32.883-3.88h24.26v8.69H22.37v-8.69zm-13.433 3.88h4.81v4.81h-4.81v-4.81zm-4.687 6.31h60.5v4.311H4.25v-4.31zm2 5.811h56.5v30.937H6.25V27.464zm-2 32.437h60.5v4.31H4.25v-4.31z"
            class="color000 svgShape"
          ></path>
          <path
            d="m41.658 38.123-4.951-.676 1.63-4.367a.75.75 0 0 0-.701-1.012h-5.567a.751.751 0 0 0-.686.447l-4.626 10.507a.75.75 0 0 0 .686 1.052h4.033l-4.084 8.653a.751.751 0 0 0 1.222.837l13.487-14.18a.752.752 0 0 0-.443-1.26zM30.736 49.156l2.602-5.511a.75.75 0 0 0-.679-1.07h-4.066l3.966-9.007h3.996L34.974 37.8a.748.748 0 0 0 .6 1.006l4.43.605-9.268 9.745zm26.922-39.2a.75.75 0 0 0 .75-.75V7.371h1.833a.75.75 0 0 0 0-1.5h-1.833V4.038a.75.75 0 0 0-1.5 0v1.834h-1.833a.75.75 0 0 0 0 1.5h1.833v1.833c0 .414.336.75.75.75zm-48.9-4.084a.75.75 0 0 0 0 1.5h5.167a.75.75 0 0 0 0-1.5H8.758z"
            class="color000 svgShape"
          ></path>
        </svg>
      </g>
    </svg>