<svg style="transform: scaleX(-1)" fill="#ffffff" xmlns="http://www.w3.org/2000/svg" xmlns:xlink="http://www.w3.org/1999/xlink" width="59.187" height="23.056" viewBox="0 0 59.187 23.056">
  <defs>
    <clipPath id="clip-path">
      <rect id="Rectangle_59484" data-name="Rectangle 59484" width="59.187" height="23.056" transform="translate(0 -0.001)" fill="none"/>
    </clipPath>
  </defs>
  <g id="Car-Icon-SVG-9049jvc" transform="translate(0 0.001)">
    <g id="Group_61500" data-name="Group 61500" clip-path="url(#clip-path)">
      <path id="Path_135042" data-name="Path 135042" d="M57.812,10.755C55.768,9.016,48.315,8,40.241,7.4c-.979-.969-5.812-5.608-9.822-6.91C27.089-.585,15.3.276,13.674,1.426a37.822,37.822,0,0,0-5.4,5.2c-1.091.043-2.141.107-2.8.2C.078,7.639,0,16.944,0,17.34a.625.625,0,0,0,.4.582l2.223.878.459-1.162-1.815-.717c.075-1.739.612-8.287,4.395-8.851,1.759-.262,6.833-.277,6.882-.259V6.561c-.11-.008-1.21-.009-2.548.018a32.371,32.371,0,0,1,4.4-4.132c1.188-.839,12.56-1.764,15.638-.763,2.894.939,6.407,3.9,8.243,5.584C27.653,6.577,16.628,6.561,15.8,6.561v1.25c.622,0,1.307,0,2.047.008l2.234,5.735a3.306,3.306,0,0,0,3.081,2.078H39.082v-1.25H23.161a2.063,2.063,0,0,1-1.92-1.289L19.192,7.832c11.839.137,34.415.987,37.808,3.874,1.713,1.458.676,5.181-.007,6.862l-2.8.318.141,1.242,3.163-.358a.625.625,0,0,0,.5-.364c.113-.251,2.741-6.165-.181-8.651"/>
      <path id="Path_135043" data-name="Path 135043" d="M47.777,13.17a4.943,4.943,0,1,0,4.942,4.943,4.948,4.948,0,0,0-4.942-4.943m0,8.635a3.693,3.693,0,1,1,3.692-3.692,3.7,3.7,0,0,1-3.692,3.692"/>
      <path id="Path_135044" data-name="Path 135044" d="M9.45,13.17a4.943,4.943,0,1,0,4.942,4.943A4.947,4.947,0,0,0,9.45,13.17m0,8.635a3.693,3.693,0,1,1,3.692-3.692A3.7,3.7,0,0,1,9.45,21.805"/>
      <rect id="Rectangle_59483" data-name="Rectangle 59483" width="25.303" height="1.25" transform="translate(16.139 17.992)"/>
    </g>
  </g>
</svg>
