<svg xmlns="http://www.w3.org/2000/svg"  fill="#ffab00" viewBox="0 0 512 512" width="512px" height="512px"><path d="M 168.56445 20.908203 A 4.943 4.943 0 0 0 164.02148 23.84375 L 162.26367 27.802734 A 16.878 16.878 0 0 1 142.48633 37.314453 L 138.32617 36.226562 A 4.943 4.943 0 0 0 132.13281 41.162109 L 132.26758 45.472656 A 16.877 16.877 0 0 1 118.56836 62.632812 L 114.37891 63.449219 A 4.944 4.944 0 0 0 110.93359 70.580078 L 112.91992 74.398438 A 16.888 16.888 0 0 1 108.04492 95.773438 L 104.57031 98.373047 A 4.943 4.943 0 0 0 104.5625 106.28125 L 108.06836 108.91406 A 16.889 16.889 0 0 1 112.92969 130.27344 L 110.9375 134.10352 A 4.944 4.944 0 0 0 114.38281 141.23438 L 118.57227 142.05078 A 16.877 16.877 0 0 1 132.27148 159.21094 L 132.13672 163.52148 A 4.943 4.943 0 0 0 138.33008 168.45703 L 142.49023 167.36914 A 17.1 17.1 0 0 1 146.83008 166.80664 A 16.872 16.872 0 0 1 162.26758 176.88086 L 164.02539 180.83984 A 4.944 4.944 0 0 0 171.74609 182.59766 L 175.02148 179.81055 A 16.876 16.876 0 0 1 196.98242 179.81055 L 200.25781 182.59766 A 4.943 4.943 0 0 0 207.97852 180.83984 L 209.73633 176.88086 A 16.884 16.884 0 0 1 229.51367 167.36914 L 233.67383 168.45703 A 4.943 4.943 0 0 0 239.86719 163.52148 L 239.73242 159.21094 A 16.877 16.877 0 0 1 253.43164 142.05078 L 257.62109 141.23438 A 4.944 4.944 0 0 0 261.06641 134.10352 L 259.07422 130.27344 A 16.888 16.888 0 0 1 263.93555 108.91406 L 267.43555 106.2832 A 4.943 4.943 0 0 0 267.43555 98.373047 L 263.95703 95.773438 A 16.889 16.889 0 0 1 259.07422 74.400391 L 261.0625 70.578125 A 4.944 4.944 0 0 0 257.61914 63.449219 L 253.42773 62.632812 A 16.877 16.877 0 0 1 239.72852 45.472656 L 239.86328 41.162109 A 4.943 4.943 0 0 0 233.66992 36.226562 L 229.50977 37.314453 A 16.882 16.882 0 0 1 209.73242 27.802734 L 207.97461 23.84375 A 4.943 4.943 0 0 0 200.25391 22.085938 L 196.97852 24.873047 A 16.873 16.873 0 0 1 175.01758 24.873047 L 171.74219 22.085938 A 4.943 4.943 0 0 0 168.56445 20.908203 z M 186 42.105469 A 60.239 60.239 0 1 1 125.76172 102.34375 A 60.306 60.306 0 0 1 186 42.105469 z M 188.00781 54.146484 A 48.239 48.239 0 0 0 137.76172 102.34375 A 48.293 48.293 0 0 0 186 150.58203 A 48.239 48.239 0 0 0 188.00781 54.146484 z M 272.12305 61 A 17.156 17.156 0 0 1 271.71094 75.933594 L 269.72461 79.933594 A 4.925 4.925 0 0 0 271.14844 86.166016 L 274.625 88.765625 A 16.943 16.943 0 0 1 274.64258 115.875 L 271.14258 118.50781 A 4.926 4.926 0 0 0 269.72461 124.73828 L 271.71289 128.56836 A 16.944 16.944 0 0 1 259.91211 153.01172 L 255.71875 153.82617 A 4.928 4.928 0 0 0 251.71875 158.82617 L 251.8418 163.13867 A 16.826 16.826 0 0 1 245.44141 176.91797 C 244.99541 177.27297 245.00977 177.59734 244.00977 177.90234 L 244.00977 197 L 317.00977 197 A 6 6 0 0 1 317.00977 209 L 244 209 L 244 253 L 392.30078 253 A 6 6 0 0 1 392.30078 265 L 244 265 L 244 277.54688 A 5.979 5.979 0 0 1 240.95508 282.7832 A 5.919 5.919 0 0 1 238.04688 283.54688 A 6.212 6.212 0 0 1 234.85156 282.66211 L 185.75977 252.64062 L 160 268.28516 L 160 396.82422 C 160 410.05822 171.24747 421 184.48047 421 L 417.51953 421 C 430.75253 421 442 410.05822 442 396.82422 L 442 151 L 376.78125 151 C 364.48425 151 354 141.02256 354 128.72656 L 354 61 L 272.12305 61 z M 366 70.15625 L 366 128.72656 C 366 134.40556 371.09925 139 376.78125 139 L 433.33203 139 L 366 70.15625 z M 186 74.541016 A 27.8 27.8 0 1 1 158.19922 102.3418 A 27.836 27.836 0 0 1 186 74.541016 z M 186.65625 86.5625 A 15.8 15.8 0 0 0 170.19922 102.34766 A 15.822 15.822 0 0 0 186 118.14844 A 15.8 15.8 0 0 0 186.65625 86.5625 z M 94.480469 132.00195 C 81.247469 132.00095 70 142.39991 70 155.62891 L 70 467.09375 C 70 480.32775 81.247469 491 94.480469 491 L 327.51953 491 C 340.75253 491 352 480.32775 352 467.09375 L 352 433 L 184.48047 433 C 164.63047 433 148 416.67522 148 396.82422 L 148 275.64258 L 136.81445 282.66211 A 5.52 5.52 0 0 1 131.01562 282.7832 A 5.953 5.953 0 0 1 128 277.54688 L 128 177.91406 C 127 177.61406 127.01436 177.29055 126.56836 176.93555 A 16.837 16.837 0 0 1 120.14062 163.16211 L 120.27539 158.86328 A 4.9 4.9 0 0 0 116.27539 153.88086 L 112.08594 153.11133 A 16.681 16.681 0 0 1 100.0625 143.9375 A 16.287 16.287 0 0 1 99.0625 132.00195 L 94.480469 132.00195 z M 146.61914 178.81836 A 4.9 4.9 0 0 0 145.55469 178.98047 L 141.41992 180.07031 A 10.735 10.735 0 0 0 139.99805 180.38086 L 139.99805 266.83203 L 182.88867 240.48828 A 5.86 5.86 0 0 1 189.08008 240.48828 L 232 266.83203 L 232 180.38086 A 10.735 10.735 0 0 0 230.57812 180.07031 L 226.4707 178.98047 A 4.918 4.918 0 0 0 220.69922 181.75391 L 218.94141 185.71484 A 16.943 16.943 0 0 1 192.47656 191.73828 L 189.20117 188.95117 A 4.922 4.922 0 0 0 182.79492 188.95117 L 179.51953 191.73828 A 16.781 16.781 0 0 1 168.59961 195.78906 A 17.173 17.173 0 0 1 164.78125 195.35547 A 16.791 16.791 0 0 1 153.06055 185.71484 L 151.31055 181.75391 A 4.9 4.9 0 0 0 146.61914 178.81836 z M 204.67969 313 L 392.30078 313 A 6 6 0 0 1 392.30078 325 L 204.67969 325 A 6 6 0 0 1 204.67969 313 z"/></svg>