    <svg
      xmlns="http://www.w3.org/2000/svg"
      enable-background="new 0 0 592 592"
      viewBox="10 10 480 480"
      width="756"
      height="756"
      fill="#ffab00"
    >
      <path
        d="M400.191 365.095c-36.982 0-67.069-30.087-67.069-67.069 0-36.981 30.087-67.069 67.069-67.069s67.069 30.087 67.069 67.069C467.261 335.008 437.174 365.095 400.191 365.095zM400.191 240.957c-31.468 0-57.069 25.601-57.069 57.069s25.602 57.069 57.069 57.069 57.069-25.602 57.069-57.069S431.659 240.957 400.191 240.957zM92.33 365.095c-36.982 0-67.069-30.087-67.069-67.069 0-36.981 30.087-67.069 67.069-67.069s67.069 30.087 67.069 67.069C159.399 335.008 129.312 365.095 92.33 365.095zM92.33 240.957c-31.468 0-57.069 25.601-57.069 57.069s25.601 57.069 57.069 57.069 57.069-25.602 57.069-57.069S123.798 240.957 92.33 240.957z"
        class="color000 svgShape"
      ></path>
      <path
        d="M92.326,303.025c-1.066,0-2.14-0.339-3.05-1.04c-2.187-1.687-2.593-4.826-0.906-7.013l89.529-116.11l35.202-48.333
	c0.938-1.288,2.434-2.051,4.027-2.056l29.642-0.087c2.732-0.016,5.007,2.224,5.015,4.985c0.008,2.761-2.224,5.006-4.985,5.015
	l-27.107,0.08l-33.75,46.339c-0.027,0.037-0.054,0.073-0.082,0.109L96.289,301.078C95.304,302.355,93.823,303.025,92.326,303.025z"
        class="color000 svgShape"
      ></path>
      <path
        d="M400.191,305.098H228.057c-43.293-0.446-72.26-88.691-73.472-92.448c-0.848-2.627,0.595-5.445,3.222-6.293
	c2.628-0.846,5.445,0.594,6.294,3.222c7.65,23.682,34.063,85.21,64.007,85.519h161.979l-53.358-69.932
	c-1.676-2.195-1.254-5.333,0.941-7.008c2.196-1.675,5.334-1.254,7.008,0.942l59.488,77.965c1.153,1.512,1.35,3.547,0.507,5.251
	C403.829,304.02,402.093,305.098,400.191,305.098z"
        class="color000 svgShape"
      ></path>
      <path
        d="M281.436,223.082h-93.953c-0.141,0-0.282-0.006-0.423-0.018c-9.954-0.844-16.778-6.362-18.722-15.138
	c-2.951-13.32,6.416-30.012,21.788-38.827c12.389-7.104,46.416-18.792,94.709,25.972c1.021,0.946,1.601,2.275,1.601,3.667v19.344
	C286.436,220.843,284.197,223.082,281.436,223.082z M187.706,213.082h88.729v-12.144c-42.54-38.552-70.995-29.094-81.335-23.164
	c-12.885,7.389-18.761,20.033-16.999,27.989C179.064,210.108,182.295,212.57,187.706,213.082z"
        class="color000 svgShape"
      ></path>
      <path
        d="M322.729 227.282c-26.281 0-41.747-4.14-42.618-4.379-2.663-.732-4.228-3.484-3.496-6.146.731-2.661 3.478-4.224 6.141-3.498l0 0c.273.074 27.967 7.411 71.962 2.016 30.562-3.749 47.086-8.756 54.271-11.437-1.55-2.357-4.782-5.898-6.721-8.021-.998-1.093-1.964-2.151-2.835-3.151-9.505.917-42.774 4.498-58.381 10.986-20.38 8.474-59.03.326-60.665-.026-2.7-.58-4.418-3.237-3.84-5.937.579-2.699 3.238-4.421 5.937-3.841.371.079 37.227 7.846 54.729.569 19.669-8.177 62.168-11.805 63.967-11.956 1.69-.144 3.342.585 4.378 1.931.961 1.248 2.483 2.916 4.096 4.681 5.774 6.327 11.229 12.302 9.988 17.877-.529 2.378-2.151 4.239-4.568 5.24-7.362 3.052-24.837 8.802-59.14 13.009C343.53 226.721 332.396 227.282 322.729 227.282zM172.976 303.025c-2.761 0-5-2.238-5-5 0-24.971-11.74-47.514-32.21-61.85-20.285-14.206-46.189-17.667-69.299-9.261-2.598.944-5.464-.395-6.408-2.989-.944-2.595.395-5.464 2.989-6.408 26.171-9.52 55.501-5.607 78.455 10.468 23.179 16.233 36.473 41.761 36.473 70.041C177.976 300.787 175.737 303.025 172.976 303.025zM177.429 192.665c-.066 0-.132-.001-.198-.004l-26.891-1.049c-1.519-.059-2.929-.806-3.831-2.03-.902-1.224-1.198-2.792-.804-4.26l7.434-27.746c.391-1.46 1.422-2.665 2.804-3.277 1.382-.612 2.967-.567 4.312.125l29.595 15.216c2.456 1.263 3.423 4.277 2.161 6.733-1.263 2.457-4.277 3.424-6.733 2.161l-24.083-12.382-4.21 15.713 20.636.805c2.759.107 4.909 2.432 4.801 5.191C182.316 190.552 180.1 192.665 177.429 192.665zM233.533 276.467h-12.926c-2.761 0-5-2.238-5-5v-21.543c0-9.884 8.042-17.926 17.926-17.926h21.543c2.762 0 5 2.239 5 5v12.926C260.076 264.56 248.169 276.467 233.533 276.467zM225.607 266.467h7.926c9.122 0 16.543-7.421 16.543-16.543v-7.926h-16.543c-4.37 0-7.926 3.556-7.926 7.926V266.467zM281.023 269.285h-7.54c-2.762 0-5-2.238-5-5v-12.566c0-6.915 5.625-12.54 12.54-12.54h12.566c2.762 0 5 2.239 5 5v7.54C298.59 261.405 290.71 269.285 281.023 269.285zM278.483 259.285h2.54c4.172 0 7.566-3.395 7.566-7.566v-2.54h-7.566c-1.377 0-2.54 1.163-2.54 2.54V259.285z"
        class="color000 svgShape"
      ></path>
    </svg>