<svg xmlns="http://www.w3.org/2000/svg"  fill="#ffab00" viewBox="0 0 50 50" width="512px" height="512px"><path d="M 25 1 C 22.789063 1 21 2.789063 21 5 L 21 6 L 12 6 C 10.300781 6 9 7.300781 9 9 L 9 46 C 9 47.699219 10.300781 49 12 49 L 38 49 C 39.699219 49 41 47.699219 41 46 L 41 9 C 41 7.300781 39.699219 6 38 6 L 29 6 L 29 5 C 29 2.789063 27.210938 1 25 1 Z M 25 3 C 26.191406 3 27 3.808594 27 5 L 27 9 L 23 9 L 23 5 C 23 3.808594 23.808594 3 25 3 Z M 25 4 C 24.449219 4 24 4.449219 24 5 C 24 5.550781 24.449219 6 25 6 C 25.550781 6 26 5.550781 26 5 C 26 4.449219 25.550781 4 25 4 Z M 24.90625 15 C 25.804688 15 26.511719 15.1875 26.8125 15.6875 C 29.511719 16.085938 28.710938 19.707031 28.3125 20.90625 C 28.414063 21.007813 28.695313 21.3125 28.59375 21.8125 C 28.59375 22.710938 28.199219 23 28 23 C 27.898438 23.898438 27.398438 24.898438 27 25 L 27 26.8125 C 27.699219 28.8125 32.707031 28.199219 32.90625 32 L 17 32 C 17.199219 28.199219 22.207031 28.8125 22.90625 26.8125 C 23.007813 26.113281 22.90625 25.699219 22.90625 25 C 22.605469 24.800781 22.007813 23.800781 21.90625 23 C 21.707031 23 21.289063 22.710938 21.1875 21.8125 C 21.085938 21.3125 21.398438 21.007813 21.5 20.90625 C 20.699219 17.804688 21.105469 15 24.90625 15 Z M 18 36 L 32 36 C 32.601563 36 33 36.398438 33 37 C 33 37.601563 32.601563 38 32 38 L 18 38 C 17.398438 38 17 37.601563 17 37 C 17 36.398438 17.398438 36 18 36 Z M 18 40 L 32 40 C 32.601563 40 33 40.398438 33 41 C 33 41.601563 32.601563 42 32 42 L 18 42 C 17.398438 42 17 41.601563 17 41 C 17 40.398438 17.398438 40 18 40 Z"/></svg>