<svg xmlns="http://www.w3.org/2000/svg" fill="#ffab00" viewBox="0 0 50 50" width="100px" height="100px"><path d="M 24.15625 0 C 23.546875 0 23 0.539063 23 1.21875 L 23 9 C 23 9.550781 22.550781 10 22 10 C 21.449219 10 21 9.550781 21 9 L 21 2.21875 C 17.238281 3.253906 15.152344 7.164063 15 11 C 13.972656 11.367188 13 12.199219 13 15 L 13 15.78125 L 13.75 15.96875 C 13.917969 16.011719 17.953125 17 25 17 C 32.050781 17 36.082031 16.011719 36.25 15.96875 L 37 15.78125 L 37 15 C 37 12.179688 36.027344 11.355469 35 11 C 34.847656 7.167969 32.757813 3.253906 29 2.21875 L 29 9 C 29 9.550781 28.554688 10 28 10 C 27.445313 10 27 9.550781 27 9 L 27 1.21875 C 27 0.539063 26.457031 0 25.84375 0 Z M 15.71875 18.375 C 15.324219 18.925781 15.035156 19.695313 15.15625 20.71875 C 15.421875 22.921875 16.277344 23.828125 17 24.1875 C 17.34375 25.917969 18.296875 27.863281 19.21875 28.78125 L 19.21875 29.25 C 19.226563 30.265625 19.222656 31.144531 19.125 32.28125 C 18.511719 33.6875 16.476563 34.511719 14.125 35.4375 C 10.21875 36.972656 5.363281 38.871094 5 44.9375 L 4.9375 46 L 45.0625 46 L 45 44.9375 C 44.636719 38.871094 39.800781 36.972656 35.90625 35.4375 C 33.566406 34.511719 31.515625 33.6875 30.90625 32.28125 C 30.808594 31.144531 30.835938 30.261719 30.84375 29.25 L 30.84375 28.78125 C 31.742188 27.863281 32.664063 25.921875 33 24.1875 C 33.703125 23.824219 34.582031 22.914063 34.84375 20.71875 C 34.964844 19.695313 34.675781 18.925781 34.28125 18.375 C 32.292969 18.675781 29.144531 19 25 19 C 20.828125 19 17.703125 18.675781 15.71875 18.375 Z"/></svg>