<svg xmlns="http://www.w3.org/2000/svg" fill="#ffab00" viewBox="0 0 50 50" width="512px" height="512px"><path d="M 11 4 C 10.765625 4 10.554688 4.070313 10.375 4.21875 L 4.625 9 L 24 9 L 24 4 Z M 26 4 L 26 9 L 45.375 9 L 39.65625 4.21875 C 39.476563 4.070313 39.234375 4 39 4 Z M 4 11 L 4 45 C 4 45.554688 4.449219 46 5 46 L 45 46 C 45.554688 46 46 45.554688 46 45 L 46 11 Z M 21.5 16 L 28.5 16 C 29.300781 16 30 16.699219 30 17.5 C 30 18.300781 29.300781 19 28.5 19 L 21.5 19 C 20.699219 19 20 18.300781 20 17.5 C 20 16.699219 20.699219 16 21.5 16 Z M 31 31 L 34 34 L 32 34 L 32 38 L 30 38 L 30 34 L 28 34 Z M 38 31 L 41 34 L 39 34 L 39 38 L 37 38 L 37 34 L 35 34 Z M 28 39 L 41 39 L 41 41 L 28 41 Z"/></svg>