<svg style="transform: scaleX(-1)" fill="#ffffff" xmlns="http://www.w3.org/2000/svg" xmlns:xlink="http://www.w3.org/1999/xlink" width="51.626" height="27.356" viewBox="0 0 51.626 27.356">
  <defs>
    <clipPath id="clip-path">
      <rect id="Rectangle_59485" data-name="Rectangle 59485" width="51.626" height="27.356" transform="translate(0 0)" fill="none"/>
    </clipPath>
  </defs>
  <g id="Truck-Icon-SVG-039mcdx" transform="translate(0 0)">
    <g id="Group_61501" data-name="Group 61501" clip-path="url(#clip-path)">
      <path id="Path_135045" data-name="Path 135045" d="M51.28,13.738,49.045,12.62l-4.75-9.5a.624.624,0,0,0-.559-.345H33.463V1.625A1.627,1.627,0,0,0,31.838,0H1.625A1.627,1.627,0,0,0,0,1.625v19.57A1.627,1.627,0,0,0,1.625,22.82H4.051V21.57H1.625a.375.375,0,0,1-.375-.375V1.625a.375.375,0,0,1,.375-.375H31.838a.375.375,0,0,1,.375.375V21.57h-17.5a4.536,4.536,0,1,0,.176,1.25H36.735a4.647,4.647,0,1,0,.176-1.25H33.463V4.024H43.35l1.033,2.067H38.276a.625.625,0,0,0-.625.625v6.37a.625.625,0,0,0,.625.625H48.433l1.943.973V21.57H47.589v1.25H51a.626.626,0,0,0,.625-.625V14.3a.626.626,0,0,0-.346-.559m-9.966,5.7a3.333,3.333,0,1,1-3.333,3.334,3.338,3.338,0,0,1,3.333-3.334m-31,6.667a3.333,3.333,0,1,1,3.334-3.333,3.337,3.337,0,0,1-3.334,3.333M38.9,7.341h6.107l2.56,5.12H38.9Z"/>
    </g>
  </g>
</svg>
